<?xml version="1.0" encoding="utf-8"?>
<!-- Generator: Adobe Illustrator 22.1.0, SVG Export Plug-In . SVG Version: 6.00 Build 0)  -->
<svg version="1.1" id="Слой_1" xmlns="http://www.w3.org/2000/svg" xmlns:xlink="http://www.w3.org/1999/xlink" x="0px" y="0px"
	 viewBox="0 0 841.9 595.3" style="enable-background:new 0 0 841.9 595.3;" xml:space="preserve">
<style type="text/css">
	.st0{fill:#00A0DE;}
	.st1{fill:#FFFFFF;}
	.st2{fill:#3D3834;}
</style>
<g>
	<g>
		<g>
			<path class="st0" d="M117.1,359.1h-71c-2.3,0-4.2-1.9-4.2-4.2c0-2.3,1.9-4.2,4.2-4.2h71c2.3,0,4.2,1.9,4.2,4.2
				C121.3,357.2,119.4,359.1,117.1,359.1z"/>
		</g>
	</g>
	<g>
		<path class="st0" d="M121.3,252.3c0,1.2-0.9,2.1-2.1,2.1H115c-1.1,0-2.1-0.9-2.1-2.1V248c0-1.2,0.9-2.1,2.1-2.1h4.3
			c1.2,0,2.1,0.9,2.1,2.1V252.3z"/>
	</g>
	<g>
		<path class="st0" d="M50.2,252.3c0,1.1-0.9,2.1-2.1,2.1h-4.3c-1.1,0-2.1-0.9-2.1-2.1V248c0-1.1,0.9-2.1,2.1-2.1h4.3
			c1.1,0,2.1,0.9,2.1,2.1V252.3z"/>
	</g>
	<g>
		<path class="st0" d="M46,313.6c-2.3,0-4.2-1.9-4.2-4.2v-47.6c0-2.3,1.9-4.2,4.2-4.2c2.3,0,4.2,1.9,4.2,4.2v47.6
			C50.2,311.7,48.4,313.6,46,313.6z"/>
	</g>
	<g>
		<path class="st0" d="M117.1,313.6c-2.3,0-4.2-1.9-4.2-4.2v-47.6c0-2.3,1.9-4.2,4.2-4.2c2.3,0,4.2,1.9,4.2,4.2v47.6
			C121.3,311.7,119.5,313.6,117.1,313.6z"/>
	</g>
	<g>
		<path class="st0" d="M105.3,254.4H57.7c-2.3,0-4.2-1.9-4.2-4.2c0-2.3,1.9-4.2,4.2-4.2h47.6c2.3,0,4.2,1.9,4.2,4.2
			C109.6,252.5,107.7,254.4,105.3,254.4z"/>
	</g>
	<g>
		<path class="st0" d="M121.3,318.9c0-1.1-0.9-2.1-2.1-2.1H115c-1.1,0-2.1,0.9-2.1,2.1v4.3c0,1.1,0.9,2.1,2.1,2.1h4.3
			c1.1,0,2.1-0.9,2.1-2.1V318.9z"/>
	</g>
	<g>
		<path class="st0" d="M50.3,318.9c0-1.2-0.9-2.1-2.1-2.1h-4.3c-1.1,0-2.1,0.9-2.1,2.1v4.3c0,1.2,0.9,2.1,2.1,2.1h4.3
			c1.1,0,2.1-0.9,2.1-2.1V318.9z"/>
	</g>
	<g>
		<path class="st0" d="M105.3,316.8H57.7c-2.3,0-4.2,1.9-4.2,4.2c0,2.3,1.9,4.2,4.2,4.2h47.6c2.3,0,4.2-1.9,4.2-4.2
			C109.6,318.7,107.7,316.8,105.3,316.8z"/>
	</g>
	<g>
		<g>
			<path class="st0" d="M105.6,313.4c-1,0-2-0.4-2.8-1.1l-48.1-47.9c-1.6-1.6-1.6-4.1-0.1-5.7c1.5-1.6,4-1.6,5.6-0.1l48.1,47.9
				c1.6,1.6,1.6,4.1,0.1,5.7C107.7,313,106.6,313.4,105.6,313.4z"/>
		</g>
		<g>
			<path class="st0" d="M57.5,313.4c-1,0-2.1-0.4-2.8-1.2c-1.5-1.6-1.5-4.1,0.1-5.7l48.1-47.9c1.6-1.6,4.1-1.5,5.6,0.1
				c1.5,1.6,1.5,4.1-0.1,5.7l-48.1,47.9C59.5,313,58.5,313.4,57.5,313.4z"/>
		</g>
	</g>
</g>
<g>
	<g>
		<g>
			<polygon class="st0" points="187.1,279.1 175.5,279.1 175.9,279.2 185.7,279.2 			"/>
		</g>
	</g>
	<g>
		<g>
			<polygon class="st0" points="430.9,324.8 439.4,296.4 447.9,324.8 459.7,324.8 445.3,281.5 445,280.6 433.8,280.6 433.5,281.5 
				419.1,324.8 			"/>
		</g>
	</g>
	<g>
		<g>
			<polygon class="st0" points="364.6,280.4 351.4,280.4 336.4,295.1 336.4,280.4 325.3,280.4 325.3,324.7 336.4,324.7 336.4,310.3 
				339.4,307 354,324.7 367.7,324.7 346.9,298.5 			"/>
		</g>
	</g>
	<g>
		<g>
			<path class="st0" d="M251.5,280.4l0,4.2c0-0.1-0.1-0.1-0.1-0.2c-4.2-5.2-11.8-5.2-11.9-5.2c-0.2,0-0.4,0-0.4,0
				c-10.3-0.1-18.1,6.8-21,16.2c-0.7,2.2-1.1,4.6-1.1,7.1c0,0.3,0,0.6,0,0.9c0.5,12.3,10.3,22.1,22.4,22.4c3.1,0,7.6-0.7,10.2-3.2v0
				c0,0,1-0.9,1.8-2.1l0,4.2h11.7v-22.1v-22.1H251.5z M239.6,279.2L239.6,279.2C239.6,279.2,239.6,279.2,239.6,279.2
				C239.6,279.2,239.6,279.2,239.6,279.2z M251.5,308c-0.1,0.2-0.2,0.5-0.3,0.7c-2.2,4.1-6.4,7-11.3,7c-2.9,0-5.7-1-7.8-2.8
				c-2.6-2.3-4.3-5.6-4.5-9.4c0-0.3,0-0.5,0-0.8c0-2.3,0.6-4.5,1.6-6.4c2.2-4.1,6.4-7,11.3-7c2.9,0,5.7,1,7.8,2.8
				c1.4,1.2,2.5,2.8,3.3,4.5c0.7,1.5,1.1,3.1,1.2,4.9c0,0.3,0,0.5,0,0.8C252.7,304.3,252.3,306.2,251.5,308z"/>
		</g>
	</g>
	<g>
		<g>
			<path class="st0" d="M400.3,280.7l0,4.2c0-0.1-0.1-0.1-0.1-0.2c-4.2-5.1-11.8-5.2-11.8-5.2c-0.2,0-0.4,0-0.4,0
				c-10.2-0.1-18,6.8-20.9,16.1c-0.7,2.2-1.1,4.6-1.1,7c0,0.3,0,0.6,0,0.9c0.5,12.3,10.3,22.1,22.3,22.3c3.1,0,7.5-0.7,10.2-3.2v0
				c0,0,1-0.9,1.8-2.1l0,4.2h11.6v-22v-22H400.3z M388.5,279.6L388.5,279.6C388.5,279.6,388.5,279.6,388.5,279.6
				C388.5,279.6,388.5,279.6,388.5,279.6z M400.3,308.2c-0.1,0.2-0.2,0.5-0.3,0.7c-2.2,4.1-6.4,6.9-11.3,6.9c-2.9,0-5.6-1-7.8-2.8
				c-2.6-2.3-4.3-5.6-4.5-9.3c0-0.3,0-0.5,0-0.8c0-2.3,0.6-4.5,1.6-6.4c2.2-4.1,6.4-6.9,11.2-6.9c2.9,0,5.6,1,7.8,2.8
				c1.4,1.2,2.5,2.8,3.3,4.5c0.7,1.5,1.1,3.1,1.2,4.8c0,0.3,0,0.5,0,0.8C401.5,304.5,401.1,306.5,400.3,308.2z"/>
		</g>
	</g>
	<path class="st0" d="M210.2,300.9c-0.3-7.1-4-13.4-9.7-17.4c-5.7-4.7-14.2-4.5-14.2-4.5l-1.4,0h-9.8h-0.4v-0.1V265h27.3v-11.1
		h-38.4v0.4h0v10.5v59.7h2.2h20.9c0.4,0,0.9,0,1.6-0.1v0c9.8-0.7,18-7.1,20.9-15.8c0.7-2.2,1.1-4.5,1.1-6.9
		C210.3,301.5,210.3,301.2,210.2,300.9z M196,307.4c-1.8,3-5,5.2-8.7,6h-12.6v-23.4l9.5-0.1h3c0.3,0.1,0.7,0.1,1,0.2
		c1.8,0.4,3.4,1.1,4.8,2.1c2.7,2.1,4.5,5.1,4.7,8.5c0,0.2,0,0.5,0,0.7C197.7,303.7,197.1,305.7,196,307.4z"/>
	<path class="st0" d="M316.1,323.2c0-0.1,0-0.2-0.1-0.3c0-0.1,0-0.2-0.1-0.3c0,0,0,0,0,0c0-0.1,0-0.2,0-0.2h0c-0.4-2.4-0.5-7-0.6-11
		v-9.5v-22.1h-9.1h-2.6h0v5.2v3.5v2.1v5.4v6.1c0,0,0,0.4,0,1.1c0,0,0,0.1,0,0.1c0,0,0,0,0,0c-0.1,1.8-0.5,5.1-1.9,7.2
		c-1.9,2.6-4.9,4.3-8.2,4.3c-0.3,0-0.6,0-0.9,0c-1.8-0.2-3.4-0.8-4.8-1.7c-1.9-1.3-3.4-3.3-4.1-5.6c0,0,0,0,0-0.1
		c-0.3-0.8-0.5-2.6-0.6-3.8l0,0c0,0,0,0,0,0c-0.1-0.6-0.1-1.1-0.1-1.1h0c-0.6-8.9,0-22.6,0-22.6l-0.3-0.1h-11c0,4.3,0.1,20.6,0,23.4
		c0.1,2.6,0.4,6.9,1.8,10.7c0.6,1.5,1.4,3.1,2.4,4.5v0c0.2,0.3,0.4,0.6,0.7,0.8c0.3,0.3,0.6,0.6,0.8,0.9c1.4,1.4,3.1,2.7,5.2,3.6
		c0,0,0.1,0,0.1,0c0.9,0.4,3.7,1.5,8.1,1.5c0.6,0,1.1,0,1.5-0.1c0,0,7.6,0.1,12-6.1c0.1,1.7,0.4,4.2,1.2,5.1h10.8
		C316.3,323.8,316.2,323.5,316.1,323.2z"/>
	<g>
		<g>
			<g>
				<path class="st1" d="M699.1,305.8C699.1,305.8,699.1,305.7,699.1,305.8C699.1,305.7,699.1,305.8,699.1,305.8L699.1,305.8z"/>
			</g>
		</g>
		<g>
			<g>
				<path class="st1" d="M694,305"/>
			</g>
		</g>
		<path class="st2" d="M781.4,309.4c-2.2,4.1-6.3,6.7-10.8,6.7c-6.6,0-12-5.5-12.4-12.5l0-0.2c0-0.2,0-0.4,0-0.6
			c0-2.2,0.5-4.5,1.5-6.4c2.2-4.3,6.4-6.9,10.9-6.9c4.5,0,8.7,2.6,10.9,6.8l0.2,0.4l9.8-4l-0.2-0.4c-3.8-8.6-12.1-14.1-21.1-14.1
			c-10.2,0-19.1,6.8-22.2,17c-0.7,2.4-1.1,4.9-1.1,7.4c0,0.3,0,0.6,0,0.9c0.5,13.1,10.7,23.4,23.3,23.4c8.9,0,16.9-5.2,20.9-13.5
			l0.2-0.4l-9.6-3.9L781.4,309.4z"/>
		<path class="st2" d="M580.5,282.6c-0.4-0.3-0.8-0.6-1.3-0.9c-0.1-0.1-0.2-0.1-0.3-0.2c-0.3-0.2-0.5-0.3-0.8-0.5l-0.4-0.2
			c-0.5-0.3-1-0.5-1.4-0.7c-0.2-0.1-0.3-0.1-0.5-0.2c-0.3-0.1-0.5-0.2-0.8-0.3c-0.2-0.1-0.3-0.1-0.5-0.2l-0.1,0
			c-0.4-0.1-0.8-0.3-1.1-0.4c-0.2-0.1-0.5-0.1-0.7-0.2c-0.2-0.1-0.5-0.1-0.7-0.2c-0.3-0.1-0.6-0.1-1-0.2c-0.2,0-0.5-0.1-0.7-0.1
			c-0.4-0.1-0.7-0.1-1.1-0.1c-0.2,0-0.3,0-0.5,0c-0.5,0-0.9-0.1-1.4-0.1l-0.1,0c-0.6,0-1.2,0-1.8,0.1l-0.3,0c-0.5,0.1-1,0.1-1.5,0.2
			l-0.4,0.1c-0.5,0.1-1,0.2-1.4,0.3l-0.3,0.1c-0.5,0.1-1,0.3-1.5,0.4l-0.2,0.1c-0.5,0.2-1,0.4-1.6,0.7c-5.1,2.3-9.2,6.4-11.7,11.5
			l-0.2,0.4l0,0c-0.5,1-0.8,2-1.2,3.1c-0.7,2.4-1.1,4.9-1.1,7.4c0,0.3,0,0.6,0,0.9c0.1,2,0.4,4.1,0.9,6l0.1,0.5
			c0.3,0.9,0.6,1.8,1.1,2.9c0.1,0.2,0.2,0.3,0.2,0.5l0.2,0.4c0.5,0.9,1,1.9,1.6,2.7l0.2,0.2c0.6,0.8,1.2,1.6,1.9,2.4l0.2,0.2
			c0.2,0.2,0.4,0.5,0.7,0.7l0.1,0.1c0.4,0.4,0.9,0.9,1.4,1.3c0.1,0.1,0.2,0.2,0.3,0.2c0.2,0.2,0.5,0.4,0.7,0.6l0.2,0.1
			c0.5,0.3,0.9,0.7,1.4,1l0.3,0.2c0.3,0.2,0.5,0.3,0.8,0.5l0.3,0.2c0.5,0.2,0.9,0.5,1.4,0.7c0.2,0.1,0.3,0.1,0.5,0.2
			c0.3,0.1,0.5,0.2,0.8,0.3c0.2,0.1,0.4,0.1,0.6,0.2c0.4,0.1,0.8,0.3,1.1,0.4c0.2,0.1,0.5,0.1,0.7,0.2c0.2,0.1,0.5,0.1,0.7,0.2
			c0.3,0.1,0.6,0.1,1,0.2c0.2,0,0.5,0.1,0.7,0.1c0.4,0.1,0.7,0.1,1.1,0.1c0.2,0,0.3,0,0.5,0c0.5,0,0.9,0.1,1.5,0.1h0
			c0.6,0,1.2,0,1.8-0.1l0.3,0c0.5,0,1-0.1,1.5-0.2l0.4-0.1c0.5-0.1,1-0.2,1.4-0.3l0.3-0.1c0.5-0.1,1-0.3,1.5-0.4l0.3-0.1
			c0.5-0.2,1.1-0.4,1.5-0.6l0.1,0c5.1-2.3,9.2-6.3,11.7-11.5l0.2-0.4l-10.6-4.4l-0.2,0.4c-2.2,4.1-6.4,6.6-10.8,6.6
			c-1.7,0-3.3-0.3-4.8-1c-3.8-2.1-5.8-4.6-6.4-8h33.5l0-0.4C589.3,302.5,589.8,289.6,580.5,282.6z M578.3,297.8h-22.2
			c0.2-0.5,0.4-0.9,0.6-1.4c2.2-4.3,6.4-6.9,10.9-6.9c1.7,0,3.3,0.3,4.8,1C575.1,292,577.3,294.6,578.3,297.8z"/>
		<path class="st2" d="M528.7,302.7l-0.2,0.4c-3.8,7-10.2,11.1-17.2,11.1c-11.2,0-20.3-10.7-20.3-23.9c0-13.2,9.1-23.9,20.3-23.9
			c8.2,0,15.6,5.8,18.7,14.7l0.2,0.4l11.7-5l-0.2-0.4c-5.2-13.7-17.1-22.5-30.5-22.5c-18.2,0-33,16.4-33,36.6
			c0,20.2,14.8,36.6,33,36.6c11.6,0,22.5-6.9,28.5-18.1l0,0l0.4-0.7l0,0l0-0.1L528.7,302.7z"/>
		<path class="st2" d="M641.9,295.7c-3.2-10.3-11.8-17-21.9-17l-0.3,0c0,0-0.2,0-0.4,0c0,0-0.1,0-0.1,0c-0.1,0-7.3,0.1-11.8,4.8
			l0-3.6h-13v72h13l0-28.8c0.6,0.7,1.1,1.1,1.1,1.1l0.1,0c3.1,2.9,8,3.4,10.8,3.4c12.8-0.2,23.1-10.6,23.6-23.5c0-0.3,0-0.6,0-0.9
			C643.1,300.6,642.7,298.1,641.9,295.7z M610.7,292.7c2.3-1.8,5-2.8,7.8-2.8c4.7,0,9,2.7,11.3,7c1,2,1.6,4.2,1.6,6.5
			c0,0.2,0,0.3,0,0.5l0,0.3c-0.2,3.6-1.8,7-4.5,9.4c-2.3,1.8-5,2.8-7.8,2.8c-4.7,0-9-2.7-11.3-7c-0.1-0.2-0.2-0.5-0.3-0.7
			c-0.8-1.8-1.2-3.7-1.2-5.8c0-0.2,0-0.4,0-0.5l0-0.3c0.1-1.7,0.5-3.3,1.2-4.9C608.2,295.5,609.3,294,610.7,292.7z"/>
		<path class="st2" d="M691.6,310l0-0.1c-0.1-2.9-1.2-5.3-3.3-7.4l-0.1-0.1c-0.8-0.8-1.7-1.5-2.8-2.3c0.2-0.3,0.5-0.7,0.7-1
			c2.2-1.9,3.4-4.5,3.4-7.3c0-5.3-5.3-10.7-11.4-11.6c-1.8-0.1-3.1-0.2-3.8-0.2c-0.4,0-0.6,0-0.6,0l-24.7,0.1v45.1h12.1l6-0.1h9.3
			c6.6-0.5,12.4-4.6,14.4-10.2c0.5-1.5,0.8-3,0.8-4.5C691.6,310.3,691.6,310.2,691.6,310z M679,311.8c-0.1,2-1.8,3.5-3.3,3.9
			c-0.2,0.1-0.5,0.1-0.8,0.2c-1.1,0.2-2.4,0.3-3.3,0.3h-3.2c-1.2,0-2.4,0-3.5,0h-3.2v-10.6h3.2c1.1,0,2.3,0,3.5,0l2.8,0
			c0.4,0,2.6,0,4.1,0.4l0.1,0c0.1,0,0.1,0,0.2,0.1c0.2,0,0.3,0.1,0.5,0.2l0,0l0,0l0,0l0,0h0l0.1,0.1c0.1,0.1,0.2,0.1,0.4,0.2
			c1.3,0.8,2.2,2.1,2.3,3.5l0,0.1c0,0.2,0,0.8,0,0.8S679.1,311.7,679,311.8z M676,296c-1,0.4-1.6,0.5-1.8,0.5l-2.1,0
			c-0.5,0-0.9,0-0.9,0l-1,0l-8.6,0v-7.5l12.7,0c0.1,0,0.6,0.1,1.2,0.4c1.3,0.7,2.2,2,2.2,3.1C677.8,294.3,677.3,295.3,676,296z"/>
		<path class="st2" d="M742.9,324.8c-0.1-0.2-0.2-0.5-0.2-0.8c0-0.1,0-0.2-0.1-0.3l-0.1-0.5c-0.4-2.5-0.5-7.3-0.6-10.9v-32.1h-12.6
			V303c0,0,0,0.4,0,1l0,0.2c-0.1,1.8-0.5,5-1.8,7c-1.8,2.5-4.8,4.1-7.9,4.1c-0.3,0-0.6,0-0.8,0c-1.7-0.1-3.2-0.7-4.6-1.6
			c-1.8-1.3-3.2-3.2-3.9-5.3l0-0.1c-0.2-0.6-0.4-1.9-0.6-3.6l0-0.1c0-0.4-0.1-0.7-0.1-0.9l0,0l0-0.2c-0.6-8.8,0-22.4,0-22.6l0-0.6
			h-12.3l0,0.5c0,7.7,0.1,20.9,0,23.4c0.1,2.9,0.5,7,1.8,10.8c0.7,1.7,1.6,3.3,2.5,4.6c0.2,0.3,0.4,0.6,0.7,0.9
			c0.3,0.3,0.6,0.6,0.8,0.9c1.5,1.6,3.4,2.8,5.4,3.7l0.1,0c1,0.5,3.9,1.5,8.1,1.5h0.2c0.6,0,1.1,0,1.5-0.1c0.3,0,7.1-0.1,11.7-5.4
			c0.2,2.1,0.6,3.5,1.3,4.2l0.1,0.1h11.6L742.9,324.8z"/>
	</g>
	<path class="st0" d="M300.6,267.8L300.6,267.8L300.6,267.8c-1.5,1.9-3.9,3.4-6.7,3.5c-3.1,0.1-5.8-1.4-7.4-3.5l-5.9,3.2
		c2.1,5.1,7.5,8.7,13.6,8.4c5.6-0.2,10.4-3.6,12.4-8.3L300.6,267.8z"/>
</g>
<g>
	<path class="st0" d="M173.3,350.1h-3.4v8.8h-3.3v-8.8h-3.4v-2.8h10.2V350.1z"/>
	<path class="st0" d="M180.5,347.3h3.3v1.7c0.8-1.1,1.9-1.9,3.6-1.9c2.7,0,5.3,2.1,5.3,6c0,3.9-2.5,6-5.3,6c-1.8,0-2.8-0.8-3.6-1.7
		v5h-3.3V347.3z M189.4,353.1c0-1.9-1.3-3.2-2.8-3.2c-1.5,0-2.8,1.3-2.8,3.2c0,1.9,1.3,3.2,2.8,3.2
		C188.1,356.3,189.4,355.1,189.4,353.1z"/>
	<path class="st0" d="M199.8,355.5c0-2.5,1.9-3.7,4.7-3.7c1.2,0,2,0.2,2.8,0.5v-0.2c0-1.4-0.8-2.1-2.5-2.1c-1.3,0-2.1,0.2-3.2,0.6
		l-0.8-2.5c1.3-0.6,2.5-0.9,4.5-0.9c1.8,0,3.1,0.5,3.9,1.3c0.9,0.9,1.3,2.1,1.3,3.7v6.7h-3.2v-1.3c-0.8,0.9-1.9,1.5-3.5,1.5
		C201.6,359.1,199.8,357.9,199.8,355.5z M207.3,354.8v-0.6c-0.6-0.3-1.3-0.4-2.1-0.4c-1.4,0-2.3,0.6-2.3,1.6c0,0.9,0.7,1.4,1.8,1.4
		C206.3,356.8,207.3,356,207.3,354.8z"/>
	<path class="st0" d="M229.3,358.9H226v-4.4h-4v4.4h-3.3v-11.6h3.3v4.5h4v-4.5h3.3V358.9z"/>
	<path class="st0" d="M237.1,353.1c0-3.3,2.5-6,6.1-6c2.2,0,3.5,0.8,4.6,2l-1.9,1.9c-0.7-0.7-1.4-1.1-2.7-1.1
		c-1.6,0-2.8,1.4-2.8,3.2c0,1.8,1.1,3.2,2.9,3.2c1.1,0,1.9-0.5,2.7-1.2l1.9,1.9c-1.1,1.2-2.4,2.1-4.7,2.1
		C239.6,359.2,237.1,356.5,237.1,353.1z"/>
	<path class="st0" d="M265.9,358.9h-3.3v-8.8h-4v8.8h-3.3v-11.6h10.5V358.9z"/>
	<path class="st0" d="M273.7,353.1c0-3.3,2.7-6,6.3-6c3.6,0,6.2,2.7,6.2,6c0,3.3-2.7,6-6.3,6C276.3,359.2,273.7,356.5,273.7,353.1z
		 M283,353.1c0-1.7-1.2-3.2-3-3.2c-1.9,0-3,1.4-3,3.2c0,1.7,1.2,3.2,3,3.2C281.9,356.3,283,354.9,283,353.1z"/>
	<path class="st0" d="M294,347.3h3.3v1.7c0.8-1.1,1.9-1.9,3.6-1.9c2.7,0,5.3,2.1,5.3,6c0,3.9-2.5,6-5.3,6c-1.8,0-2.8-0.8-3.6-1.7v5
		H294V347.3z M302.9,353.1c0-1.9-1.3-3.2-2.8-3.2c-1.5,0-2.8,1.3-2.8,3.2c0,1.9,1.3,3.2,2.8,3.2
		C301.6,356.3,302.9,355.1,302.9,353.1z"/>
	<path class="st0" d="M322.6,350.1h-3.4v8.8h-3.3v-8.8h-3.4v-2.8h10.2V350.1z"/>
	<path class="st0" d="M340.4,358.9h-3.3v-4.4h-4v4.4h-3.3v-11.6h3.3v4.5h4v-4.5h3.3V358.9z"/>
	<path class="st0" d="M348.1,355.5c0-2.5,1.9-3.7,4.7-3.7c1.2,0,2,0.2,2.8,0.5v-0.2c0-1.4-0.8-2.1-2.5-2.1c-1.3,0-2.1,0.2-3.2,0.6
		l-0.8-2.5c1.3-0.6,2.5-0.9,4.5-0.9c1.8,0,3.1,0.5,3.9,1.3c0.9,0.9,1.3,2.1,1.3,3.7v6.7h-3.2v-1.3c-0.8,0.9-1.9,1.5-3.5,1.5
		C349.9,359.1,348.1,357.9,348.1,355.5z M355.6,354.8v-0.6c-0.6-0.3-1.3-0.4-2.1-0.4c-1.4,0-2.3,0.6-2.3,1.6c0,0.9,0.7,1.4,1.8,1.4
		C354.6,356.8,355.6,356,355.6,354.8z"/>
	<path class="st0" d="M377.2,358.9H374v-3.7h-1.8l-2.4,3.7h-3.8l3-4.3c-1.5-0.6-2.4-1.7-2.4-3.5c0-2.3,1.7-3.9,4.7-3.9h6.1V358.9z
		 M374,352.8v-2.9h-2.2c-1.2,0-1.9,0.5-1.9,1.5c0,0.9,0.7,1.4,1.9,1.4H374z"/>
	<path class="st0" d="M397.5,347.3h3.3v4.8l4.1-4.8h3.8l-4.3,4.8l4.8,6.8h-3.9l-3.1-4.4l-1.5,1.6v2.8h-3.3V347.3z"/>
	<path class="st0" d="M414.9,353.1c0-3.3,2.7-6,6.3-6c3.6,0,6.2,2.7,6.2,6c0,3.3-2.7,6-6.3,6C417.5,359.2,414.9,356.5,414.9,353.1z
		 M424.2,353.1c0-1.7-1.2-3.2-3-3.2c-1.9,0-3,1.4-3,3.2c0,1.7,1.2,3.2,3,3.2C423,356.3,424.2,354.9,424.2,353.1z"/>
	<path class="st0" d="M435.2,347.3h3.3l3.1,4.9l3.2-4.9h3.3v11.6h-3.3v-7l-3.2,4.8l-3.2-4.7v6.9h-3.2V347.3z"/>
	<path class="st0" d="M467,358.9h-3.3v-8.8h-4v8.8h-3.3v-11.6H467V358.9z"/>
	<path class="st0" d="M474.7,355.5c0-2.5,1.9-3.7,4.7-3.7c1.2,0,2,0.2,2.8,0.5v-0.2c0-1.4-0.8-2.1-2.5-2.1c-1.3,0-2.1,0.2-3.2,0.6
		l-0.8-2.5c1.3-0.6,2.5-0.9,4.5-0.9c1.8,0,3.1,0.5,3.9,1.3c0.9,0.9,1.3,2.1,1.3,3.7v6.7h-3.2v-1.3c-0.8,0.9-1.9,1.5-3.5,1.5
		C476.5,359.1,474.7,357.9,474.7,355.5z M482.2,354.8v-0.6c-0.6-0.3-1.3-0.4-2.1-0.4c-1.4,0-2.3,0.6-2.3,1.6c0,0.9,0.7,1.4,1.8,1.4
		C481.2,356.8,482.2,356,482.2,354.8z"/>
	<path class="st0" d="M504.2,358.9h-3.3v-4.4h-4v4.4h-3.3v-11.6h3.3v4.5h4v-4.5h3.3V358.9z"/>
	<path class="st0" d="M523.3,358.9h-3.2v-6.7l-4.5,6.7h-3.1v-11.6h3.2v6.8l4.5-6.8h3.1V358.9z"/>
	<path class="st0" d="M541.9,358.9h-3.3v-3.7h-1.8l-2.4,3.7h-3.8l3-4.3c-1.5-0.6-2.4-1.7-2.4-3.5c0-2.3,1.7-3.9,4.7-3.9h6.1V358.9z
		 M538.6,352.8v-2.9h-2.2c-1.2,0-1.9,0.5-1.9,1.5c0,0.9,0.7,1.4,1.9,1.4H538.6z"/>
</g>
</svg>
