<?xml version="1.0" encoding="UTF-8" standalone="no"?>
<svg
   xmlns:dc="http://purl.org/dc/elements/1.1/"
   xmlns:cc="http://creativecommons.org/ns#"
   xmlns:rdf="http://www.w3.org/1999/02/22-rdf-syntax-ns#"
   xmlns:svg="http://www.w3.org/2000/svg"
   xmlns="http://www.w3.org/2000/svg"
   xmlns:sodipodi="http://sodipodi.sourceforge.net/DTD/sodipodi-0.dtd"
   xmlns:inkscape="http://www.inkscape.org/namespaces/inkscape"
   width="100.00004mm"
   height="99.999893mm"
   viewBox="0 0 100.00004 99.999893"
   version="1.1"
   id="svg3599"
   inkscape:version="1.0.1 (3bc2e813f5, 2020-09-07)"
   sodipodi:docname="good.svg">
  <defs
     id="defs3593" />
  <sodipodi:namedview
     id="base"
     pagecolor="#ffffff"
     bordercolor="#666666"
     borderopacity="1.0"
     inkscape:pageopacity="0.0"
     inkscape:pageshadow="2"
     inkscape:zoom="1.4"
     inkscape:cx="295.18242"
     inkscape:cy="105.35803"
     inkscape:document-units="mm"
     inkscape:current-layer="layer1"
     inkscape:document-rotation="0"
     showgrid="false"
     inkscape:window-width="1500"
     inkscape:window-height="1041"
     inkscape:window-x="2149"
     inkscape:window-y="92"
     inkscape:window-maximized="0"
     fit-margin-top="0"
     fit-margin-left="0"
     fit-margin-right="0"
     fit-margin-bottom="0" />
  <metadata
     id="metadata3596">
    <rdf:RDF>
      <cc:Work
         rdf:about="">
        <dc:format>image/svg+xml</dc:format>
        <dc:type
           rdf:resource="http://purl.org/dc/dcmitype/StillImage" />
        <dc:title></dc:title>
      </cc:Work>
    </rdf:RDF>
  </metadata>
  <g
     inkscape:groupmode="layer"
     id="layer2"
     inkscape:label="Слой 2"
     style="display:inline">
    <rect
       style="opacity:0.985;fill:none;fill-rule:evenodd;stroke:#000000;stroke-width:2;stroke-linecap:round;stroke-linejoin:round;stroke-miterlimit:4;stroke-dasharray:none;stroke-opacity:1;paint-order:markers fill stroke"
       id="rect4309"
       width="16.169806"
       height="28.196934"
       x="24.588797"
       y="44.099472"
       rx="0.15355279"
       ry="0.37797582" />
    <path
       style="fill:none;stroke:#000000;stroke-width:1.9;stroke-linecap:round;stroke-linejoin:round;stroke-miterlimit:4;stroke-dasharray:none;stroke-opacity:1"
       d="m 40.758602,44.099472 c 0,0 6.133402,-5.515618 8.552624,-8.819894 1.16559,-1.592012 2.093824,-3.371802 2.806332,-5.211757 0.994846,-2.569054 0.573013,-5.66425 2.004521,-8.018085 0.524759,-0.862863 1.313656,-1.685331 2.271791,-2.004522 1.059913,-0.353097 2.366354,-0.279004 3.340868,0.26727 1.057009,0.592518 1.763429,1.787608 2.138156,2.939964 0.895392,2.753494 0.643368,5.863224 0,8.68626 -0.571088,2.505879 -3.340868,6.949009 -3.340868,6.949009 l -0.400904,2.939963 c 0,0 11.597049,-0.14361 13.563928,0 0.853409,0.06231 3.256316,0.716167 4.075862,1.336348 0.731416,0.553491 1.617543,1.590688 1.870886,2.472243 0.234088,0.814556 0.251719,1.930232 -2e-6,2.739513 -0.216991,0.697623 -0.772591,1.272556 -1.336347,1.737251 -0.61488,0.506836 -2.138156,1.069078 -2.138156,1.069078 0,0 1.42822,1.176094 1.737251,2.004523 0.2491,0.66777 0.338765,1.505804 0.200452,2.204973 -0.158928,0.803379 -0.595198,1.589893 -1.135894,2.204973 -0.474222,0.539461 -1.189481,0.841943 -1.870887,1.069078 -0.340703,0.113568 -1.069078,0.133635 -1.069078,0.133635 0,0 1.571371,1.434807 1.870887,2.405425 0.210564,0.68236 0.3036,1.745247 0.133634,2.438834 -0.208842,0.852218 -0.711786,1.48846 -1.336348,2.10475 -0.482951,0.476554 -1.194567,0.747615 -1.870887,0.801807 -0.366153,0.02934 -1.069078,-0.267269 -1.069078,-0.267269 0,0 1.052531,1.528148 1.069078,2.405425 0.01357,0.719518 -0.196143,1.677072 -0.601355,2.271793 -0.585546,0.859391 -1.432367,1.862398 -2.472244,1.870886 -6.696592,0.05466 -12.954998,0.477649 -19.644309,-0.133636 -2.059402,-0.188193 -5.746295,-2.338607 -5.746295,-2.338607 l -1.469983,-0.06682 z"
       id="path4311"
       sodipodi:nodetypes="csssssssccssssscsssscsssscssssccc" />
  </g>
  <g
     inkscape:label="Слой 1"
     inkscape:groupmode="layer"
     id="layer1"
     transform="translate(-39.261969,-38.992503)"
     style="display:inline">
    <path
       style="opacity:0.985;fill:none;fill-rule:evenodd;stroke:#000000;stroke-width:4.65597;stroke-linecap:round;stroke-linejoin:round;stroke-miterlimit:4;stroke-dasharray:none;stroke-opacity:1;paint-order:stroke fill markers"
       id="path4176"
       d="m 120.14237,53.222699 a 47.746407,47.375198 0 0 1 5.51215,66.648231 47.746407,47.375198 0 0 1 -67.149201,5.72047 47.746407,47.375198 0 0 1 -6.01833,-66.605118 47.746407,47.375198 0 0 1 67.103841,-6.222533"
       sodipodi:type="arc"
       sodipodi:arc-type="arc"
       sodipodi:open="true"
       sodipodi:start="5.4177929"
       sodipodi:end="5.4027168"
       sodipodi:ry="47.375198"
       sodipodi:rx="47.746407"
       sodipodi:cy="89.291794"
       sodipodi:cx="89.186394" />
  </g>
</svg>
