<svg xmlns="http://www.w3.org/2000/svg" xmlns:xlink="http://www.w3.org/1999/xlink" xmlns:xodm="http://www.corel.com/coreldraw/odm/2003" xml:space="preserve" width="900px" height="900px" style="shape-rendering:geometricPrecision; text-rendering:geometricPrecision; image-rendering:optimizeQuality; fill-rule:evenodd; clip-rule:evenodd" viewBox="0 0 899.65 899.65"> <defs>  <style type="text/css">       .fil0 {fill:none}    .fil1 {fill:#23241F}    .fil2 {fill:#FEAD05}    .fil4 {fill:#FEE498}    .fil3 {fill:#FEF6C9}    .fil5 {fill:#FFEBB7}     </style> </defs> <g id="&#x421;&#x43B;&#x43E;&#x439;_x0020_1">  <metadata id="CorelCorpID_0Corel-Layer"></metadata>  <rect class="fil0" width="899.65" height="899.65"></rect>  <g id="_1626017684592">   <path class="fil1" d="M51.88 572.23c0.81,-4.56 31.83,-58.81 34.52,-61.23 5.09,2.92 35.71,60.16 35.94,61.23l-70.46 0zm645.33 -0.61l-36.14 0.52 -0.85 -19.69c10.47,0.11 28.5,-0.99 38.44,1.06 5.87,4.56 6.8,15.72 -1.45,18.11zm-111.25 -0.27c-6.01,1.45 -37.67,1.49 -43.55,-0.16l-0.63 -17.92c7.84,-1.26 36.86,-1.23 44.4,0.62 9.32,2.48 7.52,16.83 -0.22,17.46zm-103.11 84.7c-2.97,1.94 -2.06,2.2 -2.13,7.4l0.18 26.7 -47.33 -0.04c0.13,-6.74 1.91,-30.12 -1.21,-35.53l-22.09 -0.38c-2.86,8.18 -2.64,87.42 0.05,95.78l21.05 -0.04c3.83,-10.57 0.89,-25.73 1.58,-37.69l49.12 0.2 0.1 32.23 0.1 0.76c3.82,3.96 -9.43,3.1 21.6,2.53 0.21,-12.69 1.16,-86.73 -0.88,-93.2 -3.67,-0.37 -19.83,-1.88 -20.14,1.28zm221.15 -122.04c-7.65,-5.11 -32.49,-0.86 -43.57,-2.07l-0.55 -32.93c-6.79,-1.57 -16.53,-1.88 -23.35,0.42l0.43 93.22c4.19,1.61 55.52,3.61 62.86,-0.87 34.51,-3.37 31.17,-57.4 4.18,-57.77zm-133.87 -36.11c-11.42,0.05 -46.46,-1.3 -52.4,1.16 -1.94,6.37 -1.45,88.17 0,93.93 1.23,0.45 68.08,4.52 77.27,-2.14 30.6,-9.23 19.97,-44.99 2.79,-52.94 19.18,-15.86 2.05,-42.89 -27.66,-40.01zm264.85 94.69c3.17,-4.61 9.71,-15.13 11.3,-20.27l-61.39 0.59 0.69 18.59c4.05,2.39 45.79,1.39 49.4,1.09zm-182.57 63.8l0.31 91.75 18.6 -0.21c4.74,-6.91 47.68,-52.41 48.09,-56.71 3.57,-2.37 2.42,-2.34 5.52,-3.38 2.42,3.74 0.81,50.04 0.52,58.61 3.07,2.56 5.33,1.75 10.46,1.72 3.76,-0.02 7.4,-0.06 11.23,-0.34l-0.13 -92.56c-17.63,-1.79 -19.45,-0.99 -25.22,6.5 -7.39,9.57 -39.84,42.98 -42.09,49.82 -2.37,1.35 -2.65,1.83 -5.74,2.62l-0.13 -59.2c-4.98,-0.29 -17.26,-1.15 -21.42,1.38zm-218.14 -83.46c-15.97,-3.31 -24.78,-12.63 -23.27,-31.08 2.67,-32.58 56.31,-34.24 62.28,-3.89 3.96,20.17 -5.72,27.22 -17.87,34.25 -8.53,1.31 -11.42,2.78 -21.14,0.72zm434.4 -54.11c9.88,0 9.01,0.97 12.98,-6.81 2.25,-4.42 5.59,-8.33 6.27,-12.83 -32.29,0.21 -72.79,-1.03 -102.93,0.67l-0.17 18.71 83.85 0.26zm-264.46 170.29l0.16 59.17 21.22 -0.12 -0.02 -93.29c-15.51,-0.2 -18.2,-2.66 -25.55,6.78l-41.07 47.37c-2.6,3.74 -1.32,0.48 -2.03,4.46 -4.92,-0.49 -1.79,1.09 -4.53,-1.58 1.18,-8.73 0.51,-19.96 0.51,-29.02 0,-26.48 6.53,-30.9 -22.6,-28.19l-0.15 92.93c15.42,3.03 18.87,1.39 25.88,-7l48.18 -51.51zm-373.03 -96.35c4.04,-5.86 9.67,-14.68 11.33,-20.39l-55.27 -0.26c-2.41,0.2 -1.83,0.23 -3.66,0.65 -5.86,1.37 -2.56,17.93 -1.83,18.74 2.36,2.62 46.1,1.46 49.43,1.26zm-12.99 95.9c0.23,3.41 -0.77,0.06 1.32,4.71 2.68,6 25.06,41.42 31.32,54.71l26.53 0.02c-1.19,-5.03 -10.5,-19.6 -13.36,-24.51l-39.16 -68.54 -17.53 -0.51c-4.34,8.95 -8.91,15.31 -13.68,23.71l-39.57 69.92 25.33 -0.16c4.64,-7.02 31.71,-52.58 32.09,-58.28 3.41,-2.17 3.14,-2.43 6.71,-1.07zm638.04 -133.48c4.59,-6.28 9.03,-12.46 10.9,-19.67 -14.35,0.26 -75.67,-1.12 -82.34,1.19l0.44 18.82 71 -0.34zm-674.97 -0.18c10.92,2.05 38.9,0.55 51.64,0.56 9.47,0.01 18.13,2.22 22.25,-3.91 1.01,-1.51 8.35,-14.48 8.57,-16.02l-82.85 0.29 0.39 19.08zm144.6 -21.07c-0.07,5.41 28.92,54.08 32.76,58.83l25.36 0.38c-0.83,-5.65 -32.71,-59.53 -39.67,-71.41 -4.19,-7.15 -7.95,-15.55 -13.28,-22.41l-16.58 0.05c-2.43,2.35 -52.53,88.79 -53.81,93.42l24.72 0.12c5.09,-8.82 31.53,-51.95 32.43,-58.06 1.75,-1.34 1.21,0.22 3.57,-3.02 1.87,0.79 1.75,0.16 4.5,2.1zm-51.72 -14.83c2.48,-7.04 9.14,-13.5 9.91,-19.92l-102.95 -0.07 -0.35 19.89 93.39 0.1zm462.91 73.47l21.5 -0.2 -0.44 -93.18 -21.1 0.02 0.04 93.36zm-240.68 -38.22c11.57,-69.56 -95.48,-78.4 -108.09,-18.96 -14.62,68.85 97.93,80.09 108.09,18.96zm44.65 -35.79c12.57,-1.08 34.51,-2.94 43.06,2.5 2.51,10.48 -1.77,14.62 -12.45,14.69 -9.73,0.07 -20.37,0.24 -30.53,-0.15l-0.08 -17.04zm-192.48 183.17c2.88,-3.23 4.13,-3.82 6.65,-7.12 2.62,-3.44 1.99,-5.23 7.16,-5.89l0 59.55 21.51 -0.33 -0.2 -92.82c-15.61,-1.57 -16.81,-2.01 -25.87,7.62 -7.91,8.41 -42.13,49.15 -47.23,51.25l-0.26 -59.12 -21.59 -0.25 0.36 93.67 18.87 -0.19 40.6 -46.37zm-316.83 -108.72l111.34 0.34 0.2 27.73 20.75 -0.2 -0.44 -48.52 -13.21 -0.59c-8.18,-15.2 -18.11,-32.23 -27.08,-47.35 -5.28,-8.88 -9.59,-15.83 -13.66,-23.66 -2.89,-5.55 -9.56,-18.29 -13.53,-22.83l-17.99 0.38 -43.62 76.7c-11.72,20.4 -7.25,16.99 -22.74,17.22l0.7 49.45 18.9 -0.11 0.38 -28.56z"></path>   <path class="fil2" d="M526.87 361.66c1.47,-4.93 -0.3,-3.72 5.15,-5.41l2.33 5.98c5.66,7.9 10.29,17.4 15.05,26.35 5.23,9.84 9.83,17.04 15.21,25.75 8.79,1.96 28.06,0.93 37.93,0.81 -0.96,-7.2 -13.42,-26.87 -17.45,-33.35 -6.53,-10.46 -12.2,-21.49 -18.28,-31.44 -5.69,-9.3 -32.2,-59.23 -36.76,-61.06 -2.3,2.46 -71.23,121.01 -72.02,125.89l37.47 -0.41c5.31,-6.18 11.7,-19.29 16.2,-26.67 4.93,-8.08 11.32,-18.12 15.17,-26.44z"></path>   <path class="fil2" d="M507.17 295.8c4.85,0.3 4.06,0.35 7.67,-1.49 -0.42,-6.31 8.23,-11.19 7.56,-19.06 -0.39,-4.67 -26.69,-48.44 -30.42,-54.6 -5.23,-8.66 -38.74,-69.31 -42.09,-70.98 -2.69,2.25 -26.97,44.24 -26.68,46.71 0.56,4.77 81.78,92.5 83.96,99.42z"></path>   <path class="fil2" d="M443.35 414.95c3.59,-5.62 10.28,-14.49 11.43,-21.82 -2.66,-0.85 -13.08,-2.87 -16.05,-3.42 -6.91,-1.28 -10.05,-2.29 -16.36,-3.23 -31.51,-4.68 -71.4,-16.82 -99.34,-18.35 -5.37,10.72 -23.93,37.31 -25.71,47.12l146.03 -0.3z"></path>   <path class="fil2" d="M362.2 304.58c18.11,6.64 38.7,16.27 57.49,24.49 10.81,4.73 50.98,23.91 59.23,23.9 3.73,-4.09 7.96,-10.31 8.74,-17.5 -8.99,-5.73 -18.5,-13.46 -25.52,-18.68 -10.74,-7.97 -70.58,-54.61 -77.21,-55.32 -4.81,5.93 -8.42,13.91 -11.7,20.17 -3.5,6.68 -10.67,14.71 -11.03,22.94z"></path>   <path class="fil2" d="M494.12 325.44l5.82 -7.22c1.5,-2.55 3.21,-5.18 4.23,-8.5 -0.05,-1.78 -82.6,-98.24 -87.45,-101.15 -3.68,2.59 -21.36,32.63 -22.99,37.1 -2.78,7.6 7.71,12.12 12.89,16.05 14.59,11.06 81.47,61.71 87.5,63.72z"></path>   <path class="fil2" d="M466.24 376.94c2.17,-7.33 3.6,-4.33 4.79,-12.54 -12.71,-5.94 -11.52,-3.65 -15.69,-8.37 -5.5,-0.13 -42.24,-17.12 -50.16,-20.9 -8.62,-4.11 -17.18,-6.3 -25.24,-10.71 -4.42,-2.42 -21.42,-9.83 -25.41,-10.19 -2.31,2.79 -23.09,37.45 -23.28,42.48 5,2.4 122.47,24.2 132.19,24.44l2.8 -4.21z"></path>   <path class="fil3" d="M466.24 376.94l4.35 -3.78c4.95,-6.08 2.57,-8.04 0.54,-14.2 -5.74,-0.56 -1.74,1.26 -6.63,-0.47 -4.89,-1.74 -2.45,-2.58 -9.16,-2.46 4.17,4.72 2.98,2.43 15.69,8.37 -1.19,8.21 -2.62,5.21 -4.79,12.54z"></path>   <path class="fil4" d="M526.87 361.66c6.31,-1.31 1.17,-1.84 7.48,0.57l-2.33 -5.98c-5.45,1.69 -3.68,0.48 -5.15,5.41z"></path>   <path class="fil5" d="M507.17 295.8c2.08,4.58 -0.09,2.97 4.92,3.94 3.24,-3.09 1.53,-0.47 2.75,-5.43 -3.61,1.84 -2.82,1.79 -7.67,1.49z"></path>  </g> </g></svg>