<svg xmlns="http://www.w3.org/2000/svg" xmlns:xlink="http://www.w3.org/1999/xlink" xmlns:xodm="http://www.corel.com/coreldraw/odm/2003" xml:space="preserve" width="900px" height="900px" style="shape-rendering:geometricPrecision; text-rendering:geometricPrecision; image-rendering:optimizeQuality; fill-rule:evenodd; clip-rule:evenodd" viewBox="0 0 899.65 899.65"> <defs>  <style type="text/css">       .fil0 {fill:none}    .fil1 {fill:#1B206F}    .fil8 {fill:#575986}    .fil3 {fill:#7E82A8}    .fil6 {fill:#C91745}    .fil5 {fill:#C92F54}    .fil2 {fill:#EC1547}    .fil7 {fill:#F6B3C6}    .fil4 {fill:#FEDBE8}     </style> </defs> <g id="&#x421;&#x43B;&#x43E;&#x439;_x0020_1">  <metadata id="CorelCorpID_0Corel-Layer"></metadata>  <rect class="fil0" width="899.65" height="899.65"></rect>  <g id="_1626095193760">   <path class="fil1" d="M433.42 422.95c-3.16,3.63 -19.19,1.8 -23.9,1.84 -15.52,0.12 -61.49,0.7 -71.42,-0.4l-0.55 51.27 95.8 0.46c1.97,6.31 0.91,1.52 -1,3.37l-2.34 17.36c-11.32,5.36 -54.68,4.49 -70.05,4.34 -11.24,-0.11 -67,-3.92 -72.08,-2.5l-10.29 53.61c32.2,3.83 71.47,5.41 103.77,5.59 17.84,0.11 93.22,-0.96 103.99,-6.32 9.88,-19.76 16.14,-76.14 16.34,-102.48 0.21,-29.04 -5.95,-80.91 -16.78,-102.19 -54.94,-5 -101.13,-6.94 -156.14,-3.18 -15.87,1.09 -35.12,1.23 -50.75,3.32l9.73 53.97c7.22,0.79 58.17,-2.32 71.09,-2.63 11.14,-0.26 63.96,0.34 70.51,3.69 3.33,4.18 3.05,14.7 4.07,20.88z"></path>   <path class="fil1" d="M93.98 405.39l82.29 0.14 -0.12 145.46c8.5,3.21 61.09,1.34 74.04,1.14l-0.13 -204.48 -230.91 0.01 -0.1 204.51 73.36 0.03 -0.14 -142.61c0.6,-5.88 -0.25,-2.52 1.71,-4.2z"></path>   <path class="fil1" d="M606.49 420.73c-1.65,-1.86 -0.96,1.53 -1.33,-4.23 -1.04,-16.18 1.63,-51.76 -0.27,-68.84l-72.46 0.17 -0.14 204.35 73.15 0.2 0.35 -77.17c6.26,-0.37 14.93,-0.5 21.19,-0.26 7.37,0.3 7.52,3.65 11.54,8.66l53.68 68.98 89.9 -0.15c-1.06,-3.62 -39.29,-49.43 -43.8,-54.85l-43.64 -54.14c3.1,-6.09 15.85,-18.36 20.59,-24.26 7.34,-9.13 60.18,-67.84 61.25,-72.09l-81.93 -0.08c-4.89,0.73 -33.38,38.81 -37.23,43.57 -4.74,5.86 -20.71,27.35 -24.22,29.85 -5.4,2.08 -20.41,2.15 -26.63,0.29z"></path>   <path class="fil2" d="M876.15 348.74c-13.53,-0.66 -52.04,-2.88 -63.52,-0.14 -4.89,1.17 -3.38,0.62 -3.6,12.63l0.29 46.19c5.14,1.62 60.66,1.54 66.98,0.21 2.73,-8.45 1.16,-49.76 -0.15,-58.89z"></path>   <path class="fil2" d="M864.51 553.57l3.16 0.63c2.37,-1.81 5.88,-1.75 9.23,-1.89l-4.49 -2.05c0.31,-0.13 0.62,-0.24 0.92,-0.35 0.24,-0.09 2.82,-0.52 3.23,-0.6 0.46,-7.72 0.78,-48.24 -0.78,-53.6 -5.49,-1.2 -27.57,-0.36 -34.92,-0.31 -5.64,0.03 -11.24,0.13 -16.89,0.06 -2.61,-0.03 -6.48,-0.28 -8.94,-0.1l-6.72 1.65c-0.28,-0.34 -0.82,0.34 -1.23,0.5l0 -4.49 0.11 59.24c21.16,1.44 36.33,1.48 57.32,1.31z"></path>   <path class="fil3" d="M93.98 405.39c-1.96,1.68 -1.11,-1.68 -1.71,4.2l0.14 142.61 -73.36 -0.03 0.1 -204.51 230.91 -0.01 0.13 204.48c-12.95,0.2 -65.54,2.07 -74.04,-1.14 1.91,2.6 -2.87,1.44 4.66,2.51 6.95,0.98 69.24,-0.51 70.37,-0.71l-0.47 -205.93c-14.06,-1.8 -228.75,-0.88 -232.74,0.41l0.23 204.84c5.22,2.61 70.15,1.66 74.68,0.5 2.92,-19.7 -2.56,-130.13 1.1,-147.22z"></path>   <path class="fil4" d="M864.51 553.57c-20.99,0.17 -36.16,0.13 -57.32,-1.31l-0.11 -59.24 64.25 -0.29c1.5,0.02 2.86,0.05 4.33,0.3 2.82,0.46 1.63,0.28 2.76,0.85 2.26,6.83 0.7,44.81 0.68,55.44 -1.05,3.47 0.93,0.76 -2.2,2.99 -3.35,0.14 -6.86,0.08 -9.23,1.89 7.2,1.72 6.52,0.38 13.11,-0.98 1.22,-9.43 0.44,-23.26 0.43,-33.18 0,-7.94 1.53,-23.95 -0.93,-28.8 -9.5,-0.81 -68.74,-1.58 -75.01,0.3l0.16 61.64c6.34,3.22 20.89,2.92 28.68,2.9 5.24,-0.02 10.51,-0.05 15.76,0 4.95,0.04 11.61,1.37 14.64,-2.51z"></path>   <path class="fil5" d="M876.15 348.74c1.31,9.13 2.88,50.44 0.15,58.89 -6.32,1.33 -61.84,1.41 -66.98,-0.21l-0.29 -46.19c0.22,-12.01 -1.29,-11.46 3.6,-12.63 11.48,-2.74 49.99,-0.52 63.52,0.14zm-68.18 -1.63c-3.2,4.72 -0.25,51.82 -1.43,62.44 7.71,1.19 66.13,1.45 72.13,-0.17 0.56,-8.65 1.32,-56.67 -0.64,-61.76 -16.82,-4 -51.96,-1.49 -70.06,-0.51z"></path>   <path class="fil3" d="M532.29 552.18l0.14 -204.35 72.46 -0.17c1.9,17.08 -0.77,52.66 0.27,68.84 0.37,5.76 -0.32,2.37 1.33,4.23 -0.7,-18.43 2.31,-59.02 -0.82,-74.23l-74.2 0.39c-1.21,12.04 -0.31,84.9 -0.31,103.32l1.13 101.97z"></path>   <path class="fil6" d="M876.9 552.31c3.13,-2.23 1.15,0.48 2.2,-2.99 0.02,-10.63 1.58,-48.61 -0.68,-55.44 -1.13,-0.57 0.06,-0.39 -2.76,-0.85 -1.47,-0.25 -2.83,-0.28 -4.33,-0.3l-64.25 0.29 0 4.49c0.41,-0.16 0.95,-0.84 1.23,-0.5l6.72 -1.65c2.46,-0.18 6.33,0.07 8.94,0.1 5.65,0.07 11.25,-0.03 16.89,-0.06 7.35,-0.05 29.43,-0.89 34.92,0.31 1.56,5.36 1.24,45.88 0.78,53.6 -0.41,0.08 -2.99,0.51 -3.23,0.6 -0.3,0.11 -0.61,0.22 -0.92,0.35l4.49 2.05z"></path>   <path class="fil7" d="M807.97 347.11c18.1,-0.98 53.24,-3.49 70.06,0.51 1.96,5.09 1.2,53.11 0.64,61.76 -6,1.62 -64.42,1.36 -72.13,0.17 2.24,3.81 8.27,2.36 17.43,2.36 12.36,0 49.75,1.61 55.93,-1.49 1.27,-5.15 1.14,-57.06 0.21,-63.62 -10.49,-3.47 -48.62,-3.22 -62.9,-1.8 -4.58,0.45 -6.29,-0.1 -9.24,2.11z"></path>   <path class="fil8" d="M432.35 479.49c1.91,-1.85 2.97,2.94 1,-3.37l-95.8 -0.46 0.55 -51.27c9.93,1.1 55.9,0.52 71.42,0.4 4.71,-0.04 20.74,1.79 23.9,-1.84l-95.81 0.37 -0.6 52.82c24.91,1.93 69.24,-1.22 90.64,0.07 6.86,0.41 3.66,-0.7 4.7,3.28z"></path>  </g> </g></svg>