<svg id="logo" data-name="logo" xmlns="http://www.w3.org/2000/svg" viewBox="0 0 727.61 248.19"><defs><style>.cls-1{fill:#1d1d1b;}.cls-1,.cls-2,.cls-3{fill-rule:evenodd;}.cls-2{fill:#fc0;}</style></defs><path class="cls-1" d="M209.68,191,178.09,351.29,142.83,371.9,178.47,191Zm207.72,0L386,351.48l-31.39-.15L386.18,191ZM351,191h96l5.63-28.61h-96L351,191ZM469,351.48l29.7-150.84H425.88L384.65,410.52,420,389.72l7.43-38.24Zm-36-28.6,18.44-93.63h10.4l-18.44,93.63Zm62.57-53.62,35.27-20.61-14.62,74.23h10.41l18.43-93.63H503.47l5.64-28.61h72.82L552.22,351.48H479.4l16.19-82.22Zm98.24,82.22,29.71-150.84H592.33L562.62,351.48Zm40.11-150.84h31.21L635.44,351.48h-31.2l29.7-150.84Zm-17.41,88.43H606.12l5.64-28.61h10.4l-5.63,28.61Zm114.23-59.82,5.64-28.61H678.16L648.45,351.48h58.24l5.64-28.6h-27l18.44-93.63ZM143.1,191H244.91l5.63-28.61H148.74L143.1,191ZM272.54,294.27,291,200.64H218.16l-29.7,150.84h72.82l5.63-28.6H225.3l18.44-93.63h10.4l-16.9,85.82,35.3-20.8ZM319.31,292l5,2.94-11,56.54H344.5l13.42-68.23-11.93-7,15-8.65,13.21-67H343l-11.89,59.17-6.74,3.84-4.05-2.36,12.28-60.65-35.27,20.62-10.2,51.94,10.54,6.16-13.32,7.78-12.67,64.34h31.21L314,295.12Z" transform="translate(-89.13 -162.33)"/><path class="cls-2" d="M158.23,239H103.75L89.13,313.19h54.48L158.23,239Zm580.57,0H711.68L697.06,313.2h26.86l-15.36,76.65L816.74,276.09,754.17,162.33Z" transform="translate(-89.13 -162.33)"/><path class="cls-3" d="M553.43,361.71h-4l-17.39,21.2,4.26-21.2h-4l-5.57,28h4l17.33-21.19-4.21,21.19h4l5.57-28Zm32.31,0h-4l-2.39,11.93H566.6L569,361.71h-4l-5.62,28h4L566,377.11H578.7l-2.5,12.61h4l5.56-28Zm30.56,6.65c0-4.72-3.35-6.65-8.18-6.65H597.44l-5.62,28h12c6.31,0,10.57-3,10.57-8.69a5.9,5.9,0,0,0-3.3-5.51c3.75-1.42,5.23-3.92,5.23-7.16Zm-6,12.89c0,3-1.87,5.23-6.75,5.23h-7.22l1.93-9.48h7c4.37,0,5.05,2.55,5.05,4.25Zm2-12.49c0,2.55-1.42,5.05-6.08,5.05h-7.32l1.82-8.86h6.58c3.58,0,5,1.42,5,3.81Zm34,2.21c0-5.34-3.12-9.59-9.08-9.59-10,0-13.81,10.67-13.81,19,0,6.47,4.09,9.65,9.55,9.65A14.61,14.61,0,0,0,643.5,386l-2.38-2.61a10.86,10.86,0,0,1-7.9,3.3c-4.2,0-6-2.74-6-6.43a23.21,23.21,0,0,1,.34-3.52h18.07a36.59,36.59,0,0,0,.67-5.74Zm-3.86,0a14.37,14.37,0,0,1-.22,2.84H628.11c1.59-6.25,4.83-9.09,8.92-9.09,2.89,0,5.39,1.88,5.39,6.25Zm34.36-5.45a9,9,0,0,0-8.06-4.14c-7.22,0-12.55,5-14.26,14.31a24.3,24.3,0,0,0-.4,4.31c0,5.63,3.24,10.06,9.83,10.06a12.87,12.87,0,0,0,9.31-3.92l-2.32-2.84c-2.16,2.27-4.09,3.24-6.76,3.24-3.13,0-6.08-1.93-6.08-6.65a20.77,20.77,0,0,1,.46-4.2,16,16,0,0,1,3.63-8.07,8.43,8.43,0,0,1,6.19-2.73c2.5,0,4,.91,5.51,3.13l2.95-2.5Zm27.72-3.81H682.63l-.68,3.47h9L686,389.72h4l4.94-24.54h9Z" transform="translate(-89.13 -162.33)"/></svg>